# xmcd CD database file
#
# Track frame offsets:
#	150
#	33757
#	55037
#	79792
#	112976
#	136628
#	159896
#	182455
#
# Disc length: 2720 seconds
#
# Revision: 6
# Processed by: cddbd v1.5.2PL0 Copyright (c) Steve Scherf et al.
# Submitted via: CDex 1.70beta2
#
DISCID=4c0a9e08
DTITLE=Schiller - Opus (Deluxe Edition) Disc 2
DYEAR=2013
DGENRE=New Age
TTITLE0=Desert Empire (Variation)
TTITLE1=L'Horizon
TTITLE2=Gymnopédie No. 1 (Variation) (With Diana Tishchenko)
TTITLE3=Bermuda Dunes
TTITLE4=Indian Canyons
TTITLE5=Swan Lake (Variation) (With Albrecht Mayer)
TTITLE6=Imperial Valley (Variation)
TTITLE7=Desert Horizon
EXTD=Flüchtigkeitsfehler ausgebügelt YEAR: 2013
EXTT0=
EXTT1=
EXTT2=
EXTT3=
EXTT4=
EXTT5=
EXTT6=
EXTT7=
PLAYORDER=
